<?xml version="1.0" encoding="UTF-8"?>
<svg width="81px" height="100px" viewBox="0 0 81 100" version="1.1" xmlns="http://www.w3.org/2000/svg" xmlns:xlink="http://www.w3.org/1999/xlink">
    <!-- Generator: Sketch 49.3 (51167) - http://www.bohemiancoding.com/sketch -->
    <title>astronaut</title>
    <desc>Created with Sketch.</desc>
    <defs></defs>
    <g id="Page-1" stroke="none" stroke-width="1" fill="none" fill-rule="evenodd">
        <path d="M40.1913209,78.3826418 C61.283805,78.3826418 78.3826418,61.283805 78.3826418,40.1913209 C78.3826418,19.0988368 61.283805,2 40.1913209,2 C19.0988368,2 2,19.0988368 2,40.1913209 C2,61.283805 19.0988368,78.3826418 40.1913209,78.3826418 Z M15.6309859,59.9623906 C23.1591716,59.9623906 29.2619718,51.8803037 29.2619718,41.9105444 C29.2619718,31.940785 23.1591716,23.8586981 15.6309859,23.8586981 C8.10280027,23.8586981 2,31.940785 2,41.9105444 C2,51.8803037 8.10280027,59.9623906 15.6309859,59.9623906 Z M27.297145,32.4548154 C35.1935797,25.4176696 42.7254158,21.2424127 49.8926532,19.9290445 C57.0598907,18.6156764 65.1648013,19.925561 74.2073849,23.8586981 M23.6130948,56.769547 C29.9348222,63.320604 35.1743604,67.5777287 39.3317092,69.5409212 C43.489058,71.5041138 50.3659518,72.5683949 59.9623906,72.7337648 M66.3480777,67.8216978 C67.2198969,71.1585034 68.693517,74.1824597 70.768938,76.8935668 C73.2249715,80.1018653 65.6112676,81.8207872 65.6112676,85.0139323 C65.6112676,88.9435859 69.5409212,94.3468596 63.4008375,97.5397031 C57.8892686,100.405719 50.6297595,89.0330282 43.9981728,86.9787591 C25.5236077,81.2558859 5.40990894,75.3481823 4.4560335,71.2601447 C3.30988453,66.3480777 3.71922345,61.1904073 5.68405025,55.7871336" id="astronaut" stroke="#FFFFFF" stroke-width="4"></path>
    </g>
</svg>