<?xml version="1.0" encoding="UTF-8"?>
<svg width="320px" height="401px" viewBox="0 0 320 401" version="1.1" xmlns="http://www.w3.org/2000/svg" xmlns:xlink="http://www.w3.org/1999/xlink">
    <!-- Generator: Sketch 46.2 (44496) - http://www.bohemiancoding.com/sketch -->
    <title>astronaut</title>
    <desc>Created with Sketch.</desc>
    <defs></defs>
    <g id="Page-1" stroke="none" stroke-width="1" fill="none" fill-rule="evenodd">
        <g id="astronaut" fill-rule="nonzero" fill="#FFFFFF">
            <path d="M319.53,159.77 C319.566891,202.713309 302.257832,243.851175 271.53,273.85 C273.75,277.38 274.46,282.23 274.94,285.45 C275.08,286.39 275.2,287.25 275.34,287.91 C275.9,290.5 277.46,292.24 279.43,294.42 C281.98,297.25 285.16,300.77 285.64,306.5 C285.74,306.62 286.5,307.32 286.96,307.74 C288.48,309.12 290.77,311.19 290.77,314.59 C290.77,323.77 283.01,329.2 276.77,333.59 C272.68,336.44 268.47,339.4 268.47,341.89 C268.47,344.56 269.47,346.64 270.91,349.51 C273.84,355.51 277.5,362.98 273.37,378.51 C270.48,389.43 263.07,396.99 253.07,399.31 C250.908459,399.805512 248.697607,400.053772 246.48,400.05 C236.34,400.05 220.61,395.2 201.48,373.2 C187.03,356.55 141.8,343.12 101.9,331.28 C48.9,315.55 16.23,304.81 10.24,288.34 C0.14,260.61 10.66,233.13 14.11,225.34 C4.79562491,204.743044 -0.0148868732,182.395131 -8.8817842e-15,159.79 C1.24344979e-14,71.68 71.65,0.01 159.76,0.01 C247.87,0.01 319.53,71.68 319.53,159.77 Z M309.53,159.77 C309.550277,137.10389 304.39601,114.732251 294.46,94.36 C225.56,72.9 184.28,69.75 112.6,130.07 C117.368731,141.799795 119.800915,154.347962 119.76,167.01 C119.76,191.2 111.34,212.86 98.14,227.15 C140.44,271.3 165.43,284.92 236.31,287.95 C243.263793,283.993535 249.873612,279.460992 256.07,274.4 C289.983998,245.988689 309.567956,204.012079 309.55,159.77 L309.53,159.77 Z M280.63,315.5 L280.19,315.08 C278.61,313.64 275.96,311.25 275.64,307.32 C275.44,305.04 274.24,303.63 271.97,301.09 C269.7,298.55 266.64,295.2 265.54,289.99 C265.36,289.15 265.18,288.07 265.02,286.9 C264.753003,284.877213 264.35889,282.873248 263.84,280.9 L262.28,282.16 C225.804425,312.789613 177.551237,325.519968 130.712912,316.870571 C83.8745871,308.221173 43.3505064,279.096768 20.22,237.46 C16.75,248.38 13.05,266.88 19.62,284.91 C24.31,297.82 67.05,310.52 104.73,321.7 C147.96,334.51 192.66,347.79 209.02,366.7 C224.02,383.95 239.18,392.29 250.76,389.61 C253.867189,388.909319 256.694532,387.297176 258.88,384.98 C261.200994,382.425531 262.847453,379.331975 263.67,375.98 C266.84,364.04 264.43,359.13 261.89,353.92 C260.27,350.63 258.44,346.92 258.44,341.92 C258.44,334.22 265.11,329.56 271,325.43 C276.37,321.61 280.04,318.8 280.64,315.5 L280.63,315.5 Z M287.63,81.88 C260.446773,37.2735904 211.996564,10.0418975 159.76,10.01 C92.91,10.01 36.18,54.01 16.96,114.58 C27.76,99.01 43.33,89.17 60.6,89.17 C80.06,89.17 97.37,101.63 108.15,120.79 C175.89,64.4 218.98,61.8 287.65,81.88 L287.63,81.88 Z M129.1,304.88 C158.82185,310.840527 189.634074,308.061835 217.81,296.88 C157.19,291.99 130.81,275.82 90.81,233.96 C81.97,240.91 71.65,244.9 60.63,244.9 C49.07,244.9 38.29,240.49 29.17,232.9 C50.76,270.85 85.93,296.24 129.12,304.84 L129.1,304.88 Z M109.76,167.01 C109.76,129.58 87.76,99.14 60.62,99.14 C33.48,99.14 11.47,129.59 11.47,167.01 C11.47,204.43 33.47,234.88 60.59,234.88 C87.71,234.88 109.76,204.44 109.76,167.01 Z" id="Shape"></path>
        </g>
    </g>
</svg>