<svg id="Layer_1" data-name="Layer 1" xmlns="http://www.w3.org/2000/svg" viewBox="0 0 391.21 39.32"><defs><style>.cls-1{fill:#f0f0f0;}</style></defs><title>SPACETYPER_logo</title><path class="cls-1" d="M35.5,32H15a4.85,4.85,0,0,0-3.89,1.48A5.52,5.52,0,0,0,9.8,37.24a5.29,5.29,0,0,0,1,3.36,5.44,5.44,0,0,0,3.36,1.8v5.16a9.38,9.38,0,0,1-3.86-.81,10,10,0,0,1-3.19-2.23A10.59,10.59,0,0,1,5,41.21a10.25,10.25,0,0,1-.78-4A11.86,11.86,0,0,1,5,33a10.07,10.07,0,0,1,2-3.28,8.74,8.74,0,0,1,3-2.12,8.9,8.9,0,0,1,3.63-.75h22ZM4.81,57.89H25.29a4.85,4.85,0,0,0,3.89-1.48,5.53,5.53,0,0,0,1.28-3.74,5.2,5.2,0,0,0-1-3.31A5.44,5.44,0,0,0,26,47.56V42.34a9.4,9.4,0,0,1,3.86.81,10,10,0,0,1,3.19,2.23,11.08,11.08,0,0,1,2.18,3.31,10,10,0,0,1,.81,4,11.47,11.47,0,0,1-.75,4.23,10.5,10.5,0,0,1-2,3.28,8.73,8.73,0,0,1-3,2.12,8.88,8.88,0,0,1-3.62.75H4.81Z" transform="translate(-4.23 -23.9)"/><path class="cls-1" d="M43.09,63.05V26.86H65.6a7.94,7.94,0,0,1,3.6.84,9.49,9.49,0,0,1,3,2.32,11.39,11.39,0,0,1,2,3.51,12.41,12.41,0,0,1,.75,4.35,11.38,11.38,0,0,1-2.73,7.4,10,10,0,0,1-2.93,2.35,7.54,7.54,0,0,1-3.57.87H59.1V43.33H65a3.46,3.46,0,0,0,1.91-.52,4.38,4.38,0,0,0,1.33-1.33,5.72,5.72,0,0,0,.75-1.8,8.17,8.17,0,0,0,.23-1.86,6.5,6.5,0,0,0-.32-1.94A8,8,0,0,0,68.06,34a4.81,4.81,0,0,0-1.36-1.42A3.23,3.23,0,0,0,64.84,32H48.55v31Z" transform="translate(-4.23 -23.9)"/><path class="cls-1" d="M73.25,63.05,92.92,23.9,112.4,63.05H84.62l3.54-5.16h15.37L92.92,36l-13.4,27Z" transform="translate(-4.23 -23.9)"/><path class="cls-1" d="M112.92,45A18.09,18.09,0,0,1,118.26,32a18.86,18.86,0,0,1,5.86-3.92,18,18,0,0,1,7.19-1.45,17,17,0,0,1,5.34.84,18.32,18.32,0,0,1,4.73,2.35,20.56,20.56,0,0,1,6.87,8.18l-4.47,3a17.25,17.25,0,0,0-2.17-3.57,15.1,15.1,0,0,0-2.93-2.84,13.77,13.77,0,0,0-3.48-1.86,11.26,11.26,0,0,0-3.83-.67,12.42,12.42,0,0,0-5,1A13.2,13.2,0,0,0,122.18,36a14,14,0,0,0-2.81,4.12,12.16,12.16,0,0,0,0,9.86A13.28,13.28,0,0,0,122.18,54a13.82,13.82,0,0,0,4.12,2.78,12.21,12.21,0,0,0,5,1,11.63,11.63,0,0,0,3.54-.55,13.61,13.61,0,0,0,3.31-1.57,15.64,15.64,0,0,0,2.9-2.44,15.38,15.38,0,0,0,2.26-3.1l3.94,3.94a20.35,20.35,0,0,1-6.73,6.61,17.46,17.46,0,0,1-9.22,2.49,18,18,0,0,1-7.19-1.45,18.85,18.85,0,0,1-5.86-3.92A18.09,18.09,0,0,1,112.92,45Z" transform="translate(-4.23 -23.9)"/><path class="cls-1" d="M155,26.86h27.55V32h-22.1V57.89h22.1v5.16H155Zm27.14,21.63h-18V43.33h18Z" transform="translate(-4.23 -23.9)"/><path class="cls-1" d="M211,26.86h31.61V32H229.5v31H224V32H211Z" transform="translate(-4.23 -23.9)"/><path class="cls-1" d="M263.26,63.05V50.41L247.6,26.86h6.79L265.93,44l11.95-17.17h6.73L268.83,50.12V63.05Z" transform="translate(-4.23 -23.9)"/><path class="cls-1" d="M289.77,63.05V26.86h22.5a7.94,7.94,0,0,1,3.6.84,9.49,9.49,0,0,1,3,2.32,11.38,11.38,0,0,1,2,3.51,12.41,12.41,0,0,1,.75,4.35,11.38,11.38,0,0,1-2.73,7.4A10,10,0,0,1,316,47.62a7.54,7.54,0,0,1-3.57.87h-6.61V43.33h5.92a3.46,3.46,0,0,0,1.91-.52,4.38,4.38,0,0,0,1.33-1.33,5.73,5.73,0,0,0,.75-1.8,8.14,8.14,0,0,0,.23-1.86,6.5,6.5,0,0,0-.32-1.94,8,8,0,0,0-.87-1.89,4.81,4.81,0,0,0-1.36-1.42,3.23,3.23,0,0,0-1.86-.55h-16.3v31Z" transform="translate(-4.23 -23.9)"/><path class="cls-1" d="M328.57,26.86h27.55V32H334V57.89h22.1v5.16H328.57Zm27.14,21.63h-18V43.33h18Z" transform="translate(-4.23 -23.9)"/><path class="cls-1" d="M389,63.05,379,43.33h6.55a3.46,3.46,0,0,0,1.91-.52,4.38,4.38,0,0,0,1.33-1.33,5.73,5.73,0,0,0,.75-1.8,8.14,8.14,0,0,0,.23-1.86,6.5,6.5,0,0,0-.32-1.94,8,8,0,0,0-.87-1.89,4.81,4.81,0,0,0-1.36-1.42,3.23,3.23,0,0,0-1.86-.55h-16.3v31H363.6V26.86h22.5a7.94,7.94,0,0,1,3.6.84,9.49,9.49,0,0,1,3,2.32,11.38,11.38,0,0,1,2,3.51,12.41,12.41,0,0,1,.75,4.35,11.23,11.23,0,0,1-.61,3.68,11.84,11.84,0,0,1-1.68,3.22,9.94,9.94,0,0,1-2.52,2.41,8.14,8.14,0,0,1-3.13,1.25l7.42,14.62Z" transform="translate(-4.23 -23.9)"/></svg>
